<svg width="154" height="185" viewBox="0 0 154 185" fill="none" xmlns="http://www.w3.org/2000/svg">
<path d="M83.2315 109.844C86.6227 108.553 89.4739 106.146 91.3174 103.02L97.4462 92.628C105.722 78.5952 127.228 84.4644 127.228 100.756V125.552C127.228 134.388 120.065 141.552 111.228 141.552H86.9444C69.1787 141.552 64.6467 116.924 81.2485 110.6L83.2315 109.844Z" fill="#F2B20E"/>
<path d="M54.674 88.8875C54.4441 92.5091 55.4523 96.1013 57.5329 99.0745L64.4504 108.959C73.7912 122.307 59.5363 139.446 44.71 132.694L22.1442 122.417C14.1024 118.755 10.5522 109.266 14.2147 101.225L24.2795 79.1249C31.6428 62.957 55.9336 69.0397 54.8084 86.7697L54.674 88.8875Z" fill="#E6A75F"/>
<path d="M84.8599 78.3965C82.0429 76.1088 78.5318 74.8468 74.903 74.8174L62.8385 74.7199C46.5476 74.5882 40.8524 53.0354 54.9518 44.8733L76.4112 32.4505C84.0587 28.0233 93.8472 30.634 98.2743 38.2815L110.441 59.2976C119.341 74.6728 100.298 90.9335 86.5072 79.7342L84.8599 78.3965Z" fill="#DED15A"/>
</svg>
