<svg width="17" height="17" viewBox="0 0 17 17" fill="none" xmlns="http://www.w3.org/2000/svg">
<path d="M17 8.49938C16.9985 10.4343 16.3376 12.311 15.1265 13.8196C13.9154 15.3283 12.2264 16.3789 10.3382 16.798C8.44993 17.2171 6.47527 16.9798 4.74001 16.1251C3.00475 15.2704 1.61257 13.8495 0.793168 12.0968C0.137843 10.6866 -0.118864 9.12373 0.0509097 7.57789C0.220683 6.03205 0.810452 4.56226 1.7562 3.32804C2.03551 2.96451 2.34334 2.62383 2.67675 2.30923C4.20568 0.870301 6.21288 0.0484503 8.31153 0.00207499C10.4102 -0.0443003 12.4517 0.688082 14.0426 2.05807C14.9704 2.85519 15.7149 3.84346 16.2254 4.95522C16.7358 6.06697 17 7.27596 17 8.49938Z" fill="#E0F1FA"/>
<path d="M17 8.49918C17.0013 9.41864 16.8462 10.3252 16.5541 11.197C16.4254 10.9819 16.5005 10.3719 16.5005 10.3719C16.2234 10.6698 16.0235 11.0311 15.9185 11.4242C15.7331 12.094 15.5915 12.2215 15.5323 12.179C15.4731 12.1365 15.5168 11.5814 15.4035 11.3959C15.2902 11.2104 15.4177 10.9554 15.1898 10.9271C14.9619 10.8987 15.0611 10.5278 14.6504 10.4995C14.2396 10.4711 14.2087 10.3861 13.8676 10.3011C13.5998 10.2354 13.5341 9.94947 13.5174 9.8284C13.5166 9.8222 13.5142 9.8163 13.5106 9.81124C13.5069 9.80618 13.5021 9.80212 13.4964 9.79943C13.4908 9.79673 13.4846 9.7955 13.4783 9.79584C13.4721 9.79617 13.466 9.79807 13.4607 9.80135C13.3848 9.85287 13.2573 9.98941 13.2985 10.3166C13.3551 10.7725 13.4272 10.8421 13.668 10.7287C13.9088 10.6154 14.1521 10.5007 14.2667 10.9142C14.3813 11.3276 13.9268 11.5196 13.5792 11.8338C13.2315 12.1481 12.6676 12.2614 12.5827 12.0463C12.4609 11.7504 12.2984 11.4729 12.0999 11.222C11.8861 10.9644 11.8295 10.3204 11.7587 10.2264C11.6879 10.1324 11.2321 10.1981 11.5012 10.4544C11.7703 10.7107 11.9286 11.6058 12.1269 11.8184C12.3252 12.0309 12.2402 12.474 12.6947 12.5448C13.1491 12.6156 13.7762 11.6767 13.4491 12.4585C13.1221 13.2403 12.1925 13.9668 11.9647 14.2514C11.7368 14.5361 12.0213 15.1208 11.7947 15.2045C11.5681 15.2883 11.1973 15.5909 11.0969 15.8485C10.9965 16.1061 10.1313 16.4449 9.94589 16.602C9.7605 16.7592 9.30215 16.6445 9.12191 16.459C8.94166 16.2736 8.34942 15.9438 8.65198 15.4493C8.95454 14.9547 8.65198 14.4111 8.43825 14.1123C8.22453 13.8135 8.58117 13.5005 8.32496 13.5572C8.06875 13.6138 8.0121 13.4142 7.75589 13.2442C7.49968 13.0742 6.46841 13.3447 5.92252 13.2442C5.37662 13.1437 5.08179 11.906 4.94017 11.3908C4.79855 10.8756 5.78733 10.2547 5.82853 9.97394C5.86973 9.69316 6.06543 9.47034 6.50961 9.42525C6.95379 9.38017 8.13055 9.10197 8.39577 9.12773C8.66099 9.15349 9.16826 9.99326 9.43476 9.9997C9.70127 10.0061 9.69226 9.83226 9.8017 9.70862C9.91113 9.58497 10.7351 10.0164 10.9463 9.92886C11.1574 9.84128 11.3325 9.8928 11.5166 9.74854C11.7007 9.60429 11.6776 9.34669 11.6454 9.12257C11.6132 8.89846 11.478 9.06719 11.2591 9.13545C11.1613 9.16938 11.0562 9.1764 10.9547 9.15578C10.8532 9.13517 10.7592 9.08767 10.6823 9.01825C10.5343 8.88172 10.6823 8.7761 10.7699 8.52752C10.8574 8.27893 11.0789 8.36652 11.2849 8.22355C11.4909 8.08058 11.899 8.40902 12.2337 8.26734C12.5685 8.12566 11.7934 7.91958 11.6943 7.68387C11.5952 7.44817 10.99 7.39278 10.7931 7.65683C10.5961 7.92087 10.7364 7.91443 10.6643 8.12695C10.5922 8.33947 10.7145 8.34204 10.627 8.43736C10.5394 8.53267 10.475 8.38841 10.2884 8.49403C10.1017 8.59964 10.3347 8.97703 10.1081 9.12515C9.88152 9.27327 9.8326 8.76193 9.80813 8.53911C9.78367 8.31628 9.5648 8.17976 9.39485 8.08187C9.22491 7.98398 8.93651 7.48037 8.70348 7.66842C8.47044 7.85647 8.8451 7.98913 8.93651 8.11664C9.02792 8.24416 9.32919 8.34204 9.45923 8.38455C9.50143 8.39443 9.53827 8.42007 9.5622 8.45622C9.58613 8.49237 9.59535 8.53631 9.58798 8.57904C9.58798 8.61381 9.51588 8.60737 9.4412 8.59964C9.36653 8.59192 9.26482 8.55714 9.3279 8.69109C9.39099 8.82505 9.31374 8.87141 9.26095 8.95642C9.20817 9.04143 9.11289 9.00923 9.15023 8.85725C9.18757 8.70526 8.95711 8.44122 8.73824 8.36394C8.51937 8.28666 8.41637 7.83071 8.22325 7.86419C8.03012 7.89768 8.00309 7.9814 7.70825 8.00459C7.63615 8.00459 7.56277 7.96981 7.56534 8.00459C7.56834 8.01642 7.56834 8.02882 7.56534 8.04065C7.51771 8.43478 7.30785 8.45796 7.12374 8.58676C6.93963 8.71557 6.99499 8.94612 6.84435 9.10197C6.69372 9.25781 5.55687 9.35957 5.9032 8.78898C6.24954 8.2184 5.65987 8.23256 6.06671 8.01618C6.47356 7.79979 6.89199 8.00459 6.96023 7.66842C7.02846 7.33225 6.71689 7.63235 6.58943 7.28202C6.46197 6.93168 7.18167 6.80417 7.41728 6.67666C7.65289 6.54914 7.56534 6.23616 7.78679 6.30571C8.00824 6.37526 8.16016 6.07773 8.00051 5.89354C7.84086 5.70936 8.21552 5.35258 8.30822 5.4685C8.46143 5.66299 8.19363 5.8227 8.23869 6.16531C8.27088 6.42291 8.44727 6.36367 8.70348 6.38685C8.95968 6.41004 9.54034 5.87165 9.71286 5.65526C9.88538 5.43888 9.83002 5.30621 10.0154 5.25985C10.2008 5.21348 10.4223 4.96876 10.2819 4.85284C10.1416 4.73692 9.92143 4.92239 9.6678 4.98164C9.41417 5.04089 9.46953 4.8889 9.42318 4.64547C9.37683 4.40204 9.51588 4.41234 9.68067 4.23975C9.84547 4.06715 9.92401 3.91388 9.75148 3.93706C9.62963 3.95921 9.51385 4.00694 9.41177 4.07709C9.30969 4.14724 9.22363 4.23824 9.15924 4.34408C8.96097 4.621 9.0305 4.74851 9.12319 5.028C9.17083 5.17484 9.23392 5.36031 9.13993 5.49813C9.04595 5.63594 9.05238 5.70807 8.88244 5.83687C8.60434 6.05583 8.52452 5.73769 8.53353 5.52131C8.54383 5.2109 8.41508 5.19931 8.31594 5.18772C8.21681 5.17613 8.07261 5.37448 7.85503 5.44532C7.50612 5.55351 7.64774 5.12976 7.58465 4.87344C7.52157 4.61713 8.34942 4.28483 8.50649 3.73871C8.57948 3.55168 8.69037 3.38178 8.83218 3.2397C8.97398 3.09761 9.14364 2.98642 9.33048 2.9131C9.67552 2.80234 10.0309 2.97106 10.2755 3.00198C10.7905 3.06638 11.048 3.77478 11.3312 3.77478C11.6145 3.77478 12.5268 3.17214 12.7057 2.77801C12.8345 2.49078 13.8854 2.08034 14.0381 2.05334C14.9652 2.85189 15.7211 3.83961 16.2302 4.95251C16.7393 6.06541 17.0019 7.27527 17 8.49918Z" fill="url(#paint0_linear_129_556)"/>
<path d="M6.55076 5.30245C6.64475 5.27025 6.79281 5.37071 6.80826 5.37071C6.82371 5.37071 6.77478 5.84727 6.90997 5.96834C7.04515 6.08942 7.0503 6.35474 7.13785 6.29807C7.2254 6.2414 7.3799 6.26458 7.34643 6.39982C7.31295 6.53507 6.98336 6.6175 6.88422 6.66515C6.78508 6.71281 6.57394 6.80941 6.49798 6.86222C6.42201 6.91503 6.61256 6.53893 6.70397 6.47582C6.75933 6.43975 6.57522 6.37535 6.57522 6.26072C6.58364 6.16874 6.60398 6.07825 6.63574 5.99153C6.64475 5.94001 6.43618 5.76613 6.38596 5.67597C6.33575 5.58581 6.45549 5.33722 6.55076 5.30245Z" fill="url(#paint1_linear_129_556)"/>
<path d="M6.20189 5.98892C6.24052 5.9593 6.29717 5.90391 6.3551 5.9271C6.41304 5.95028 6.4375 6.0559 6.43235 6.11515C6.4272 6.17439 6.36025 6.22334 6.36025 6.29289C6.36025 6.36244 6.4169 6.51571 6.32678 6.54147C6.23665 6.56724 6.07829 6.56981 6.04482 6.63164C6.01135 6.69346 5.91607 6.70892 5.90062 6.64452C5.88924 6.61095 5.88681 6.57499 5.89358 6.5402C5.90036 6.50541 5.9161 6.473 5.93925 6.44616C5.99847 6.38691 5.94697 6.36759 5.92637 6.28001C5.91705 6.25061 5.91596 6.21922 5.92323 6.18924C5.93049 6.15927 5.94583 6.13186 5.96757 6.10999C6.00362 6.06878 6.02422 6.18727 6.08087 6.14606C6.11593 6.08981 6.15647 6.03718 6.20189 5.98892Z" fill="url(#paint2_linear_129_556)"/>
<path d="M12.338 1.41252C12.338 1.41252 12.1307 1.58898 12.0509 1.57996C11.9711 1.57095 11.8127 1.73968 11.8127 1.82726C11.8127 1.91485 11.8204 2.13123 11.8127 2.2742C11.805 2.41717 11.7638 2.54597 11.9312 2.5859C12.0985 2.62582 12.3947 2.77781 12.4178 2.69795C12.441 2.6181 12.0972 2.47384 12.1101 2.21109C12.123 1.94833 12.1552 1.73968 12.3226 1.66884C12.4899 1.598 12.5298 1.53231 12.4577 1.4692C12.3856 1.40608 12.4539 1.32494 12.338 1.41252Z" fill="url(#paint3_linear_129_556)"/>
<path d="M6.55204 0.772473C6.37952 1.07902 5.78856 1.48087 5.692 1.80288C5.59544 2.12488 5.44738 2.97238 4.91951 3.29954C4.39165 3.62669 3.38226 3.97059 3.1518 4.44972C2.92134 4.92886 2.98057 5.35133 2.80805 5.29208C2.63552 5.23283 2.09736 4.66096 2.30979 4.04658C2.52222 3.4322 2.94194 3.40258 2.92263 2.88737C2.90589 2.38892 2.69088 2.31164 2.66513 2.3052C3.53382 1.48753 4.56527 0.862536 5.692 0.47108C5.692 0.47108 6.72456 0.46464 6.55204 0.772473Z" fill="url(#paint4_linear_129_556)"/>
<path d="M1.27983 5.83425C1.27983 6.00685 1.81671 6.34945 1.56823 6.68562C1.31974 7.02179 0.795738 6.79253 0.724927 7.17635C0.654115 7.56018 0.853675 7.82937 0.628366 7.98264C0.409919 8.14307 0.20019 8.31505 7.49586e-05 8.49785C-0.00332036 6.62626 0.614347 4.80648 1.7562 3.32393L1.79482 3.30719C1.79482 3.30719 1.87465 3.84171 1.87465 3.9177C1.87465 3.9937 1.70213 4.69051 1.58754 4.79999C1.47295 4.90947 0.961823 5.09494 0.961823 5.30231C0.961823 5.50968 1.30558 5.1529 1.32618 5.30231C1.34678 5.45172 1.27983 5.66166 1.27983 5.83425Z" fill="url(#paint5_linear_129_556)"/>
<path d="M4.83329 3.98078C4.79081 4.09026 4.89509 4.268 4.83329 4.34657C4.77149 4.42514 4.81656 4.47537 5.00067 4.46249C5.18478 4.44961 5.16804 4.65054 5.27232 4.57197C5.37577 4.48476 5.4718 4.38912 5.55943 4.28603C5.69591 4.14306 5.81049 3.91766 5.66372 3.88675C5.51695 3.85584 5.39206 3.93441 5.26975 3.93441C5.14744 3.93441 4.98393 3.85069 4.92599 3.87902C4.88644 3.9039 4.85439 3.93907 4.83329 3.98078Z" fill="url(#paint6_linear_129_556)"/>
<path d="M3.37325 14.7577C3.43351 14.9268 3.44025 15.1103 3.39256 15.2832H3.38098C2.27158 14.448 1.38317 13.3541 0.793138 12.0967C0.792101 12.0571 0.782896 12.018 0.766101 11.9821C0.762003 11.977 0.760108 11.9704 0.760833 11.9639C0.761557 11.9574 0.764841 11.9514 0.769963 11.9473C0.775085 11.9432 0.781625 11.9413 0.788144 11.942C0.794663 11.9428 0.800628 11.9461 0.804725 11.9512C0.979906 12.135 1.167 12.3071 1.36478 12.4664C1.61455 12.6506 1.91711 12.7008 2.03427 13.1181C2.15143 13.5354 2.23383 13.4362 2.56857 13.52C2.90332 13.6037 3.59083 13.7376 3.59083 14.1228C3.59083 14.5079 3.27926 14.4563 3.37325 14.7577Z" fill="url(#paint7_linear_129_556)"/>
<path d="M12.1796 15.068C12.1796 15.068 12.7217 14.8967 12.7796 14.7628C12.8375 14.6288 12.9586 14.737 12.8491 14.9148C12.7107 15.0976 12.5551 15.2666 12.3844 15.4197C12.3844 15.4197 12.1359 15.7958 11.9891 15.7571C11.8423 15.7185 12.0779 15.5085 12.1037 15.3295C12.1294 15.1505 12.0844 15.1646 12.1796 15.068Z" fill="url(#paint8_linear_129_556)"/>
<defs>
<linearGradient id="paint0_linear_129_556" x1="4.9263" y1="9.36468" x2="17" y2="9.36468" gradientUnits="userSpaceOnUse">
<stop stop-color="#085078"/>
<stop offset="1" stop-color="#85D8CE"/>
</linearGradient>
<linearGradient id="paint1_linear_129_556" x1="6.37411" y1="6.08168" x2="7.35109" y2="6.08168" gradientUnits="userSpaceOnUse">
<stop stop-color="#085078"/>
<stop offset="1" stop-color="#85D8CE"/>
</linearGradient>
<linearGradient id="paint2_linear_129_556" x1="5.88983" y1="6.30379" x2="6.43302" y2="6.30379" gradientUnits="userSpaceOnUse">
<stop stop-color="#085078"/>
<stop offset="1" stop-color="#85D8CE"/>
</linearGradient>
<linearGradient id="paint3_linear_129_556" x1="11.8026" y1="2.04747" x2="12.492" y2="2.04747" gradientUnits="userSpaceOnUse">
<stop stop-color="#085078"/>
<stop offset="1" stop-color="#85D8CE"/>
</linearGradient>
<linearGradient id="paint4_linear_129_556" x1="2.26089" y1="2.88436" x2="6.57148" y2="2.88436" gradientUnits="userSpaceOnUse">
<stop stop-color="#085078"/>
<stop offset="1" stop-color="#85D8CE"/>
</linearGradient>
<linearGradient id="paint5_linear_129_556" x1="6.10352e-05" y1="5.90252" x2="1.87465" y2="5.90252" gradientUnits="userSpaceOnUse">
<stop stop-color="#085078"/>
<stop offset="1" stop-color="#85D8CE"/>
</linearGradient>
<linearGradient id="paint6_linear_129_556" x1="4.80722" y1="4.23171" x2="5.73224" y2="4.23171" gradientUnits="userSpaceOnUse">
<stop stop-color="#085078"/>
<stop offset="1" stop-color="#85D8CE"/>
</linearGradient>
<linearGradient id="paint7_linear_129_556" x1="0.760681" y1="13.6126" x2="3.59083" y2="13.6126" gradientUnits="userSpaceOnUse">
<stop stop-color="#085078"/>
<stop offset="1" stop-color="#85D8CE"/>
</linearGradient>
<linearGradient id="paint8_linear_129_556" x1="11.9413" y1="15.2314" x2="12.8934" y2="15.2314" gradientUnits="userSpaceOnUse">
<stop stop-color="#085078"/>
<stop offset="1" stop-color="#85D8CE"/>
</linearGradient>
</defs>
</svg>
